<?xml version="1.0" encoding="utf-8"?>
<!-- Generator: Adobe Illustrator 23.0.6, SVG Export Plug-In . SVG Version: 6.00 Build 0)  -->
<svg version="1.1" id="Capa_1" xmlns="http://www.w3.org/2000/svg" xmlns:xlink="http://www.w3.org/1999/xlink" x="0px" y="0px"
	 viewBox="0 0 740.57 252" style="enable-background:new 0 0 740.57 252;" xml:space="preserve">
<style type="text/css">
	.st0{fill:#CB1E10;}
	.st1{fill:#030302;}
	.st2{fill:#1E110C;}
</style>
<g>
	<polygon class="st0" points="458.03,92.02 458.03,152.92 447.77,152.92 447.77,113.98 438.21,113.98 438.21,152.92 397.03,152.92 
		397.16,92.06 	"/>
	<path class="st1" d="M471.49,108.67v39.14l10.09,0.01l0.05-30.5h11.22c0,0,3.58,0,3.7,3.7l0.25,26.75h10.61l0.06-25.33
		c0,0,0.06-13.44-15.1-13.87L471.49,108.67z"/>
	<path class="st1" d="M540.38,109l-23.49-0.06v7.58h19.6c0,0,6.42-0.24,6.78,5.73l0.07,1.91H525.4c0,0-10.04,0.19-10.97,9.5v6.41
		c0,0,0.62,5.73,8.57,7.64l30.63-0.06v-26.45C553.63,121.21,553.63,109.43,540.38,109 M543.16,140.43l-14.49-0.06
		c0,0-4.01,0.19-3.76-2.71l-0.06-2.53c0,0,0-3.09,3.21-3.33l15.16,0.06L543.16,140.43z"/>
	<path class="st1" d="M595.06,147.96v-8.38l-14.73,0.06c0,0-9.12-0.68-8.76-8.75v-5c0,0,0.12-7.52,8.2-8.5l15.17-0.06v-8.38h-16.89
		c0,0-15.78,0.31-17.33,16.27c0,0-0.61,6.35,0.19,8.57c0,0,2.77,13.99,19.17,14.3L595.06,147.96z"/>
	<path class="st1" d="M626.51,108.89l-23.49-0.06v7.58h19.6c0,0,6.41-0.24,6.78,5.73l0.06,1.91h-17.94c0,0-10.05,0.19-10.97,9.5
		v6.41c0,0,0.61,5.73,8.56,7.64l30.64-0.06V121.1C639.77,121.1,639.77,109.33,626.51,108.89 M629.29,140.33l-14.49-0.06
		c0,0-4.01,0.19-3.76-2.71l-0.07-2.53c0,0,0-3.08,3.21-3.33l15.16,0.06L629.29,140.33z"/>
	<path class="st1" d="M688.11,129.06c0.61-19.94-16.78-20.15-16.78-20.15h-22.3v55.65h10.23v-16.98h12.07
		C689.23,147.06,688.11,129.06,688.11,129.06 M670.95,139.39l-11.65,0.06l0.12-22.06l10.54-0.06c0,0,6.28,0.31,6.91,7.4l0.06,8.2
		C676.93,132.92,676.93,137.73,670.95,139.39"/>
	<path class="st2" d="M60.51,106.76c0,2.73,0.48,4.76,1.44,6.11c0.96,1.35,2.9,2.02,5.84,2.02c2.93,0,4.87-0.67,5.82-2.02
		c0.94-1.35,1.42-3.37,1.42-6.06V87.45h6.78v19.49v1.17c0,0.39-0.02,0.76-0.04,1.12c-0.03,1.14-0.17,2.25-0.43,3.35
		c-0.25,1.09-0.73,2.12-1.41,3.08c-0.96,1.32-2.19,2.29-3.71,2.92c-1.51,0.63-3.08,1.03-4.69,1.21c-0.63,0.09-1.26,0.15-1.89,0.18
		c-0.63,0.03-1.24,0.04-1.84,0.04c-0.57,0-1.16-0.02-1.77-0.04c-0.61-0.03-1.24-0.09-1.86-0.18c-1.65-0.15-3.23-0.54-4.76-1.17
		c-1.53-0.63-2.78-1.62-3.77-2.96c-0.69-0.96-1.15-1.98-1.39-3.08c-0.24-1.09-0.38-2.21-0.4-3.35c-0.03-0.36-0.05-0.73-0.05-1.12
		v-1.12V87.45h6.74V106.76z"/>
	<polygon class="st2" points="96.94,87.45 110.15,110.62 109.83,87.45 116.75,87.45 116.75,119.7 108.89,119.7 95.01,95.31 
		95.33,119.7 88.36,119.7 88.36,87.45 	"/>
	<rect x="123.35" y="87.45" class="st2" width="7.1" height="32.25"/>
	<polygon class="st2" points="132.43,87.45 140.06,87.45 149.77,111.48 159.69,87.45 166.93,87.45 153.45,119.7 146.44,119.7 	"/>
	<path class="st2" d="M176.36,95.06c-1.23,1.3-1.92,3.15-2.07,5.55l18.77-0.04v5.61h-18.82c0,1.14,0.13,2.23,0.38,3.28
		c0.25,1.05,0.77,2.01,1.55,2.88c0.69,0.81,1.5,1.31,2.45,1.5c0.94,0.19,1.91,0.29,2.9,0.29h0.2h0.2l11.14-0.04v5.61h-11.45
		c-1.83,0-3.59-0.16-5.28-0.49c-1.69-0.33-3.29-1.09-4.78-2.29c-1.8-1.47-3.05-3.26-3.77-5.37c-0.72-2.11-1.11-4.27-1.17-6.49
		c-0.03-0.48-0.04-0.94-0.02-1.39c0.01-0.45,0.04-0.9,0.07-1.35c0.33-5.09,1.71-8.83,4.16-11.23c2.44-2.4,6.1-3.59,10.98-3.59
		l11.27-0.04v5.61h-11.14C179.44,93.09,177.59,93.76,176.36,95.06"/>
	<path class="st2" d="M215.71,87.45c0.33,0.03,0.65,0.04,0.97,0.04c0.31,0,0.64,0.02,0.97,0.05c1.23,0.06,2.43,0.25,3.62,0.58
		c1.18,0.33,2.22,0.94,3.12,1.84c0.81,0.78,1.41,1.69,1.82,2.74c0.4,1.05,0.65,2.13,0.74,3.23c0,0.21,0.01,0.42,0.02,0.63
		c0.02,0.21,0.02,0.42,0.02,0.63c0.03,2.25-0.49,4.18-1.55,5.82c-1.06,1.63-2.72,2.72-4.96,3.26l8.04,13.43h-7.64l-7.1-12.67h-8
		v12.67H199V87.45H215.71z M214.09,93.2h-8.31v8.13h8.31c0.06,0.03,0.12,0.04,0.18,0.04h0.18c1.44,0,2.75-0.22,3.93-0.65
		c1.18-0.43,1.76-1.58,1.73-3.44c0-1.92-0.62-3.07-1.86-3.46c-1.24-0.39-2.63-0.58-4.15-0.58V93.2z"/>
	<path class="st2" d="M243.2,93.2c-1.47,0.03-2.7,0.34-3.71,0.92c-1,0.58-1.5,1.7-1.5,3.35c0,1.26,0.43,2.16,1.28,2.69
		c0.85,0.54,1.85,0.81,2.99,0.81l8.98-0.05c0.33,0.03,0.67,0.05,1.03,0.05c0.36,0,0.72,0.02,1.08,0.04c1.05,0.06,2.08,0.23,3.1,0.52
		c1.02,0.28,1.92,0.8,2.7,1.55c0.72,0.66,1.26,1.45,1.62,2.38c0.36,0.93,0.58,1.89,0.67,2.87c0.03,0.3,0.05,0.59,0.07,0.88
		c0.01,0.28,0.02,0.58,0.02,0.88c-0.06,3.74-1.09,6.28-3.1,7.61c-2.01,1.33-4.73,2-8.18,2h-18.06v-5.75h16.98
		c1.5,0.03,2.79-0.21,3.88-0.72c1.09-0.51,1.53-1.66,1.33-3.46c-0.15-1.41-0.67-2.28-1.57-2.61c-0.9-0.33-1.96-0.51-3.19-0.54
		l-8-0.04c-3.32,0.03-5.95-0.64-7.88-2c-1.93-1.36-2.88-3.82-2.85-7.39c0.06-3.74,1.1-6.3,3.12-7.66c2.02-1.36,4.75-2.04,8.2-2.04
		l17.74-0.04v5.75H243.2z"/>
	<rect x="266.64" y="87.45" class="st2" width="7.1" height="32.25"/>
	<path class="st2" d="M295.21,87.45c4.91,0.03,8.58,1.24,11,3.64c2.42,2.4,3.8,6.14,4.13,11.23c0.03,0.45,0.05,0.9,0.07,1.35
		c0.01,0.45,0.01,0.91-0.02,1.39c-0.06,2.22-0.45,4.38-1.17,6.49c-0.72,2.11-1.98,3.9-3.77,5.37c-1.47,1.2-3.05,1.96-4.74,2.29
		c-1.69,0.33-3.47,0.49-5.32,0.49h-14.96V87.45H295.21z M295.07,93.06h-7.86v21.02h7.86c0.06,0.03,0.13,0.04,0.2,0.04h0.2
		c0.99,0,1.95-0.1,2.9-0.29c0.94-0.19,1.77-0.7,2.49-1.5c0.72-0.84,1.22-1.78,1.5-2.83c0.28-1.05,0.47-2.11,0.56-3.19
		c0.03-0.45,0.04-0.9,0.04-1.35v-1.35v-1.42c0-0.49-0.03-0.98-0.09-1.46c-0.06-1.05-0.23-2.08-0.52-3.1
		c-0.28-1.02-0.79-1.92-1.5-2.7c-0.72-0.81-1.55-1.32-2.49-1.53c-0.94-0.21-1.91-0.31-2.9-0.31h-0.2h-0.2V93.06z"/>
	<path class="st2" d="M331.5,87.45l13.75,32.25h-7.55l-2.96-7.68h-14.01l-2.88,7.68h-7.14l13.61-32.25H331.5z M322.92,106.27h9.61
		l-4.9-12.4L322.92,106.27z"/>
	<path class="st2" d="M362.27,87.45c4.91,0.03,8.58,1.24,11,3.64c2.42,2.4,3.8,6.14,4.13,11.23c0.03,0.45,0.05,0.9,0.07,1.35
		c0.01,0.45,0.01,0.91-0.02,1.39c-0.06,2.22-0.45,4.38-1.17,6.49c-0.72,2.11-1.98,3.9-3.77,5.37c-1.47,1.2-3.05,1.96-4.74,2.29
		c-1.69,0.33-3.47,0.49-5.32,0.49h-14.96V87.45H362.27z M362.14,93.06h-7.86v21.02h7.86c0.06,0.03,0.13,0.04,0.2,0.04h0.2
		c0.99,0,1.95-0.1,2.9-0.29c0.94-0.19,1.77-0.7,2.49-1.5c0.72-0.84,1.22-1.78,1.5-2.83c0.28-1.05,0.47-2.11,0.56-3.19
		c0.03-0.45,0.04-0.9,0.04-1.35v-1.35v-1.42c0-0.49-0.03-0.98-0.09-1.46c-0.06-1.05-0.23-2.08-0.52-3.1
		c-0.28-1.02-0.79-1.92-1.5-2.7c-0.72-0.81-1.55-1.32-2.49-1.53c-0.94-0.21-1.91-0.31-2.9-0.31h-0.2h-0.2V93.06z"/>
	<polygon class="st2" points="52.45,133.25 52.45,129.98 68.65,129.98 68.65,133.25 62.56,133.25 62.56,148.72 58.48,148.72 
		58.48,133.25 	"/>
	<path class="st2" d="M75.05,134.38c-0.72,0.76-1.12,1.83-1.2,3.23l10.92-0.03v3.27H73.82c0,0.66,0.07,1.3,0.22,1.91
		c0.15,0.61,0.45,1.17,0.9,1.67c0.4,0.47,0.88,0.76,1.42,0.87c0.55,0.11,1.11,0.17,1.69,0.17h0.12h0.12l6.48-0.03v3.27h-6.66
		c-1.06,0-2.09-0.09-3.07-0.29c-0.99-0.19-1.91-0.64-2.78-1.33c-1.05-0.85-1.78-1.89-2.2-3.12c-0.42-1.23-0.65-2.49-0.68-3.78
		c-0.02-0.28-0.02-0.55-0.01-0.81c0.01-0.26,0.02-0.52,0.04-0.78c0.19-2.96,1-5.14,2.42-6.53c1.42-1.39,3.55-2.09,6.39-2.09
		l6.56-0.03v3.27h-6.48C76.85,133.24,75.76,133.62,75.05,134.38"/>
	<path class="st2" d="M92.27,135.05c-0.56,1.24-0.86,2.68-0.91,4.31v0.85c0,0.29,0.01,0.58,0.03,0.88c0.05,0.61,0.17,1.21,0.34,1.79
		c0.17,0.58,0.46,1.1,0.86,1.55c0.42,0.47,0.9,0.76,1.45,0.88c0.55,0.11,1.11,0.17,1.68,0.17h0.12h0.12l6.48-0.03v3.27h-6.66
		c-1.06,0-2.09-0.1-3.07-0.29c-0.98-0.19-1.91-0.64-2.78-1.33c-1.05-0.85-1.78-1.89-2.2-3.12c-0.42-1.23-0.65-2.49-0.68-3.78
		c-0.02-0.28-0.02-0.55-0.01-0.81c0.01-0.26,0.02-0.52,0.04-0.78c0.19-2.96,1-5.14,2.42-6.53c1.42-1.39,3.55-2.09,6.39-2.09
		l6.56-0.03v3.21h-6.48C94.06,133.18,92.83,133.81,92.27,135.05"/>
	<polygon class="st2" points="110.33,129.95 118.02,143.44 117.83,129.95 121.86,129.95 121.86,148.72 117.28,148.72 109.21,134.53 
		109.39,148.72 105.34,148.72 105.34,129.95 	"/>
	<path class="st2" d="M124.99,135.18c0.45-1.38,1.12-2.5,2-3.36c0.88-0.86,2.03-1.48,3.46-1.84c0.52-0.12,1.06-0.22,1.62-0.29
		c0.56-0.07,1.11-0.1,1.67-0.1c0.59-0.02,1.19,0.01,1.8,0.08c0.61,0.07,1.19,0.18,1.75,0.34c1.39,0.35,2.54,0.96,3.42,1.83
		c0.89,0.87,1.54,2,1.96,3.37c0.17,0.63,0.31,1.29,0.4,1.99c0.1,0.7,0.14,1.39,0.14,2.09c0,0.75-0.04,1.48-0.13,2.2
		c-0.09,0.72-0.23,1.39-0.42,2.04c-0.42,1.41-1.08,2.55-1.99,3.41c-0.91,0.86-2.07,1.46-3.5,1.79c-0.56,0.14-1.13,0.24-1.72,0.3
		c-0.59,0.06-1.19,0.09-1.8,0.09c-0.54,0-1.08-0.04-1.62-0.1s-1.07-0.17-1.59-0.29c-1.41-0.33-2.57-0.93-3.48-1.79
		c-0.91-0.86-1.57-2-1.99-3.41c-0.17-0.61-0.31-1.27-0.4-1.99c-0.1-0.71-0.14-1.44-0.14-2.17c0-0.73,0.04-1.46,0.13-2.18
		c0.09-0.72,0.23-1.38,0.42-1.97V135.18z M129.07,136.51c-0.12,0.47-0.21,0.95-0.26,1.42c-0.05,0.48-0.08,0.95-0.08,1.42
		c0,0.49,0.03,0.97,0.09,1.45c0.06,0.48,0.14,0.95,0.25,1.4c0.19,0.8,0.51,1.5,0.95,2.09c0.45,0.59,1.07,1.03,1.87,1.31
		c0.3,0.1,0.61,0.18,0.94,0.23c0.33,0.05,0.66,0.08,0.99,0.08c0.33,0,0.66-0.03,0.99-0.08c0.33-0.05,0.64-0.13,0.94-0.23
		c0.8-0.28,1.43-0.71,1.88-1.31c0.45-0.59,0.77-1.29,0.94-2.09c0.1-0.45,0.19-0.92,0.25-1.4c0.06-0.48,0.09-0.96,0.09-1.45
		c0-0.47-0.03-0.95-0.09-1.42c-0.06-0.48-0.14-0.94-0.25-1.4c-0.17-0.8-0.49-1.5-0.94-2.1c-0.45-0.6-1.08-1.03-1.88-1.29
		c-0.3-0.1-0.61-0.18-0.94-0.24c-0.33-0.05-0.66-0.08-0.99-0.08c-0.33,0-0.66,0.03-0.99,0.08c-0.33,0.05-0.65,0.13-0.94,0.24
		c-0.8,0.28-1.42,0.71-1.86,1.31c-0.44,0.59-0.76,1.29-0.97,2.09V136.51z"/>
	<path class="st2" d="M149.99,148.44c-1.04-0.18-1.99-0.74-2.86-1.66c-0.75-0.78-1.22-1.66-1.41-2.64
		c-0.19-0.98-0.29-1.98-0.29-3.01v-11.19h3.95v10.3c-0.02,1.74,0.17,3.08,0.57,4c0.4,0.92,1.64,1.39,3.71,1.39l4.65-0.03v3.11h-4.99
		C152.14,148.72,151.03,148.63,149.99,148.44"/>
	<path class="st2" d="M159.73,135.18c0.45-1.38,1.12-2.5,2-3.36c0.88-0.86,2.03-1.48,3.46-1.84c0.52-0.12,1.06-0.22,1.62-0.29
		c0.56-0.07,1.11-0.1,1.67-0.1c0.59-0.02,1.19,0.01,1.8,0.08c0.61,0.07,1.19,0.18,1.75,0.34c1.39,0.35,2.54,0.96,3.42,1.83
		c0.89,0.87,1.54,2,1.96,3.37c0.17,0.63,0.31,1.29,0.4,1.99c0.1,0.7,0.14,1.39,0.14,2.09c0,0.75-0.04,1.48-0.13,2.2
		c-0.09,0.72-0.23,1.39-0.42,2.04c-0.42,1.41-1.08,2.55-1.99,3.41c-0.91,0.86-2.07,1.46-3.5,1.79c-0.56,0.14-1.13,0.24-1.72,0.3
		c-0.59,0.06-1.19,0.09-1.8,0.09c-0.54,0-1.08-0.04-1.62-0.1c-0.54-0.07-1.07-0.17-1.59-0.29c-1.41-0.33-2.57-0.93-3.48-1.79
		c-0.91-0.86-1.57-2-1.99-3.41c-0.17-0.61-0.31-1.27-0.4-1.99c-0.1-0.71-0.14-1.44-0.14-2.17c0-0.73,0.04-1.46,0.13-2.18
		c0.09-0.72,0.23-1.38,0.42-1.97V135.18z M163.8,136.51c-0.12,0.47-0.21,0.95-0.26,1.42c-0.05,0.48-0.08,0.95-0.08,1.42
		c0,0.49,0.03,0.97,0.09,1.45c0.06,0.48,0.14,0.95,0.25,1.4c0.19,0.8,0.51,1.5,0.95,2.09c0.45,0.59,1.07,1.03,1.87,1.31
		c0.3,0.1,0.61,0.18,0.94,0.23c0.33,0.05,0.66,0.08,0.99,0.08c0.33,0,0.66-0.03,0.99-0.08c0.33-0.05,0.64-0.13,0.94-0.23
		c0.8-0.28,1.43-0.71,1.88-1.31c0.45-0.59,0.77-1.29,0.94-2.09c0.1-0.45,0.19-0.92,0.25-1.4c0.06-0.48,0.09-0.96,0.09-1.45
		c0-0.47-0.03-0.95-0.09-1.42c-0.06-0.48-0.14-0.94-0.25-1.4c-0.17-0.8-0.49-1.5-0.94-2.1c-0.45-0.6-1.08-1.03-1.88-1.29
		c-0.3-0.1-0.61-0.18-0.94-0.24c-0.33-0.05-0.66-0.08-0.99-0.08c-0.33,0-0.66,0.03-0.99,0.08c-0.33,0.05-0.65,0.13-0.94,0.24
		c-0.8,0.28-1.42,0.71-1.86,1.31c-0.44,0.59-0.76,1.29-0.97,2.09V136.51z"/>
	<path class="st2" d="M187.43,137.58h9.33v11.13h-8.49c-1.08,0-2.13-0.09-3.14-0.27c-1.01-0.18-1.95-0.63-2.82-1.35
		c-1.05-0.85-1.78-1.9-2.2-3.12c-0.42-1.23-0.65-2.49-0.68-3.78c-0.02-0.28-0.02-0.55-0.01-0.81c0.01-0.26,0.02-0.52,0.04-0.78
		c0.19-2.96,1-5.14,2.42-6.53c1.42-1.39,3.55-2.09,6.39-2.09l8.49-0.03v3.24h-8.49c-1.87,0.02-3.07,0.68-3.62,1.97
		c-0.55,1.3-0.82,2.72-0.82,4.27v0.04v0.04c0,1.59,0.27,2.95,0.82,4.1c0.55,1.15,1.76,1.73,3.62,1.73l4.44-0.03v-4.42h-5.28V137.58z
		"/>
	<rect x="200.02" y="129.95" class="st2" width="4.13" height="18.76"/>
	<path class="st2" d="M212.1,135.05c-0.56,1.24-0.86,2.68-0.91,4.31v0.85c0,0.29,0.01,0.58,0.03,0.88c0.05,0.61,0.17,1.21,0.34,1.79
		c0.17,0.58,0.46,1.1,0.86,1.55c0.42,0.47,0.9,0.76,1.45,0.88c0.55,0.11,1.11,0.17,1.68,0.17h0.12h0.12l6.48-0.03v3.27h-6.66
		c-1.06,0-2.09-0.1-3.07-0.29c-0.98-0.19-1.91-0.64-2.78-1.33c-1.05-0.85-1.78-1.89-2.2-3.12c-0.42-1.23-0.65-2.49-0.68-3.78
		c-0.02-0.28-0.02-0.55-0.01-0.81c0.01-0.26,0.02-0.52,0.04-0.78c0.19-2.96,1-5.14,2.42-6.53c1.42-1.39,3.55-2.09,6.39-2.09
		l6.56-0.03v3.21h-6.48C213.88,133.18,212.66,133.81,212.1,135.05"/>
	<path class="st2" d="M234.73,129.95l8,18.76h-4.39l-1.72-4.47h-8.15l-1.67,4.47h-4.15l7.92-18.76H234.73z M229.74,140.9h5.59
		l-2.85-7.21L229.74,140.9z"/>
	<path class="st2" d="M262.75,129.95c2.86,0.02,4.99,0.72,6.4,2.12c1.41,1.39,2.21,3.57,2.4,6.53c0.02,0.26,0.03,0.52,0.04,0.78
		c0.01,0.26,0,0.53-0.01,0.81c-0.03,1.29-0.26,2.55-0.68,3.78c-0.42,1.23-1.15,2.27-2.19,3.12c-0.85,0.7-1.77,1.14-2.76,1.33
		c-0.98,0.19-2.02,0.29-3.1,0.29h-8.7v-18.76H262.75z M262.67,133.22h-4.57v12.23h4.57c0.03,0.02,0.07,0.03,0.12,0.03h0.12
		c0.57,0,1.14-0.06,1.68-0.17c0.55-0.11,1.03-0.4,1.45-0.88c0.42-0.49,0.71-1.04,0.88-1.65c0.17-0.61,0.27-1.23,0.33-1.86
		c0.02-0.26,0.03-0.52,0.03-0.78v-0.78v-0.82c0-0.29-0.02-0.57-0.05-0.85c-0.04-0.61-0.14-1.21-0.3-1.8
		c-0.17-0.59-0.46-1.11-0.88-1.57c-0.42-0.47-0.9-0.77-1.45-0.89c-0.55-0.12-1.11-0.18-1.68-0.18h-0.12h-0.12V133.22z"/>
	<path class="st2" d="M278.79,134.38c-0.72,0.76-1.12,1.83-1.2,3.23l10.92-0.03v3.27h-10.95c0,0.66,0.07,1.3,0.22,1.91
		c0.15,0.61,0.45,1.17,0.9,1.67c0.4,0.47,0.88,0.76,1.42,0.87c0.55,0.11,1.11,0.17,1.69,0.17h0.12h0.12l6.48-0.03v3.27h-6.66
		c-1.06,0-2.09-0.09-3.07-0.29c-0.99-0.19-1.91-0.64-2.78-1.33c-1.05-0.85-1.78-1.89-2.2-3.12c-0.42-1.23-0.65-2.49-0.68-3.78
		c-0.02-0.28-0.02-0.55-0.01-0.81c0.01-0.26,0.02-0.52,0.04-0.78c0.19-2.96,1-5.14,2.42-6.53c1.42-1.39,3.55-2.09,6.39-2.09
		l6.56-0.03v3.27h-6.48C280.59,133.24,279.51,133.62,278.79,134.38"/>
	<path class="st2" d="M306.13,135.05c-0.56,1.24-0.86,2.68-0.91,4.31v0.85c0,0.29,0.01,0.58,0.03,0.88
		c0.05,0.61,0.17,1.21,0.34,1.79c0.17,0.58,0.46,1.1,0.86,1.55c0.42,0.47,0.9,0.76,1.45,0.88c0.55,0.11,1.11,0.17,1.68,0.17h0.12
		h0.12l6.48-0.03v3.27h-6.66c-1.06,0-2.09-0.1-3.07-0.29c-0.98-0.19-1.91-0.64-2.78-1.33c-1.05-0.85-1.78-1.89-2.2-3.12
		c-0.42-1.23-0.65-2.49-0.68-3.78c-0.02-0.28-0.02-0.55-0.01-0.81c0.01-0.26,0.02-0.52,0.04-0.78c0.19-2.96,1-5.14,2.42-6.53
		c1.42-1.39,3.55-2.09,6.39-2.09l6.56-0.03v3.21h-6.48C307.91,133.18,306.68,133.81,306.13,135.05"/>
	<polygon class="st2" points="323.14,137.56 330.38,137.56 330.38,129.95 334.33,129.95 334.33,148.72 330.38,148.72 330.38,140.88 
		323.14,140.88 323.14,148.72 319.2,148.72 319.2,129.95 323.14,129.95 	"/>
	<rect x="338.22" y="129.95" class="st2" width="4.13" height="18.76"/>
	<path class="st2" d="M350.36,148.44c-1.04-0.18-1.99-0.74-2.86-1.66c-0.75-0.78-1.22-1.66-1.41-2.64
		c-0.19-0.98-0.29-1.98-0.29-3.01v-11.19h3.95v10.3c-0.02,1.74,0.17,3.08,0.57,4c0.4,0.92,1.64,1.39,3.71,1.39l4.65-0.03v3.11h-4.99
		C352.51,148.72,351.4,148.63,350.36,148.44"/>
	<path class="st2" d="M365.27,134.38c-0.72,0.76-1.12,1.83-1.2,3.23l10.92-0.03v3.27h-10.95c0,0.66,0.07,1.3,0.22,1.91
		c0.15,0.61,0.45,1.17,0.9,1.67c0.4,0.47,0.88,0.76,1.42,0.87c0.55,0.11,1.11,0.17,1.69,0.17h0.12h0.12l6.48-0.03v3.27h-6.66
		c-1.06,0-2.09-0.09-3.07-0.29c-0.99-0.19-1.91-0.64-2.78-1.33c-1.05-0.85-1.78-1.89-2.2-3.12c-0.42-1.23-0.64-2.49-0.68-3.78
		c-0.02-0.28-0.02-0.55-0.01-0.81c0.01-0.26,0.02-0.52,0.04-0.78c0.19-2.96,1-5.14,2.42-6.53c1.42-1.39,3.55-2.09,6.39-2.09
		l6.56-0.03v3.27h-6.48C367.06,133.24,365.98,133.62,365.27,134.38"/>
	<polygon class="st2" points="177.45,123.32 170.76,128.76 168.02,128.76 171.81,123.32 	"/>
</g>
</svg>
